<mxfile host="app.diagrams.net" modified="2024-05-24T01:53:22.326Z" agent="Mozilla/5.0 (Windows NT 10.0; Win64; x64) AppleWebKit/537.36 (KHTML, like Gecko) Chrome/121.0.0.0 Safari/537.36" etag="cGL8b3Yow-7opYaVvB3b" version="24.4.7" type="google">
  <diagram id="C5RBs43oDa-KdzZeNtuy" name="Page-1">
    <mxGraphModel dx="1035" dy="511" grid="0" gridSize="10" guides="1" tooltips="1" connect="1" arrows="1" fold="1" page="1" pageScale="1" pageWidth="827" pageHeight="1169" math="0" shadow="0">
      <root>
        <mxCell id="WIyWlLk6GJQsqaUBKTNV-0" />
        <mxCell id="WIyWlLk6GJQsqaUBKTNV-1" parent="WIyWlLk6GJQsqaUBKTNV-0" />
        <mxCell id="zkfFHV4jXpPFQw0GAbJ--0" value="CLIENTE&#xa;" style="swimlane;fontStyle=2;align=center;verticalAlign=top;childLayout=stackLayout;horizontal=1;startSize=30;horizontalStack=0;resizeParent=1;resizeLast=0;collapsible=1;marginBottom=0;rounded=0;shadow=0;strokeWidth=1;fontSize=14;" parent="WIyWlLk6GJQsqaUBKTNV-1" vertex="1">
          <mxGeometry x="56" y="29" width="149" height="247" as="geometry">
            <mxRectangle x="203" y="120" width="160" height="26" as="alternateBounds" />
          </mxGeometry>
        </mxCell>
        <mxCell id="_pUWd24MQMTdGhzTTzj9-4" value="-endereco: string&#xa;" style="text;align=left;verticalAlign=top;spacingLeft=4;spacingRight=4;overflow=hidden;rotatable=0;points=[[0,0.5],[1,0.5]];portConstraint=eastwest;shadow=0;glass=0;fontSize=14;" vertex="1" parent="zkfFHV4jXpPFQw0GAbJ--0">
          <mxGeometry y="30" width="149" height="26" as="geometry" />
        </mxCell>
        <mxCell id="zkfFHV4jXpPFQw0GAbJ--1" value="-nomeCliente: string" style="text;align=left;verticalAlign=top;spacingLeft=4;spacingRight=4;overflow=hidden;rotatable=0;points=[[0,0.5],[1,0.5]];portConstraint=eastwest;shadow=0;glass=0;fontSize=14;" parent="zkfFHV4jXpPFQw0GAbJ--0" vertex="1">
          <mxGeometry y="56" width="149" height="26" as="geometry" />
        </mxCell>
        <mxCell id="_pUWd24MQMTdGhzTTzj9-5" value="-email: string" style="text;align=left;verticalAlign=top;spacingLeft=4;spacingRight=4;overflow=hidden;rotatable=0;points=[[0,0.5],[1,0.5]];portConstraint=eastwest;shadow=0;glass=0;fontSize=14;" vertex="1" parent="zkfFHV4jXpPFQw0GAbJ--0">
          <mxGeometry y="82" width="149" height="26" as="geometry" />
        </mxCell>
        <mxCell id="_pUWd24MQMTdGhzTTzj9-6" value="-telefone: int&#xa;" style="text;align=left;verticalAlign=top;spacingLeft=4;spacingRight=4;overflow=hidden;rotatable=0;points=[[0,0.5],[1,0.5]];portConstraint=eastwest;shadow=0;glass=0;fontSize=14;" vertex="1" parent="zkfFHV4jXpPFQw0GAbJ--0">
          <mxGeometry y="108" width="149" height="26" as="geometry" />
        </mxCell>
        <mxCell id="_pUWd24MQMTdGhzTTzj9-29" value="-infoEnvio: string" style="text;align=left;verticalAlign=top;spacingLeft=4;spacingRight=4;overflow=hidden;rotatable=0;points=[[0,0.5],[1,0.5]];portConstraint=eastwest;shadow=0;glass=0;fontSize=14;" vertex="1" parent="zkfFHV4jXpPFQw0GAbJ--0">
          <mxGeometry y="134" width="149" height="26" as="geometry" />
        </mxCell>
        <mxCell id="zkfFHV4jXpPFQw0GAbJ--4" value="" style="line;html=1;strokeWidth=1;align=left;verticalAlign=middle;spacingTop=-1;spacingLeft=3;spacingRight=3;rotatable=0;labelPosition=right;points=[];portConstraint=eastwest;fontSize=14;" parent="zkfFHV4jXpPFQw0GAbJ--0" vertex="1">
          <mxGeometry y="160" width="149" height="8" as="geometry" />
        </mxCell>
        <mxCell id="_pUWd24MQMTdGhzTTzj9-15" value="+cadastro()" style="text;align=left;verticalAlign=top;spacingLeft=4;spacingRight=4;overflow=hidden;rotatable=0;points=[[0,0.5],[1,0.5]];portConstraint=eastwest;shadow=0;glass=0;fontSize=14;" vertex="1" parent="zkfFHV4jXpPFQw0GAbJ--0">
          <mxGeometry y="168" width="149" height="26" as="geometry" />
        </mxCell>
        <mxCell id="_pUWd24MQMTdGhzTTzj9-16" value="+atualizarPerfil()" style="text;align=left;verticalAlign=top;spacingLeft=4;spacingRight=4;overflow=hidden;rotatable=0;points=[[0,0.5],[1,0.5]];portConstraint=eastwest;shadow=0;glass=0;fontSize=14;" vertex="1" parent="zkfFHV4jXpPFQw0GAbJ--0">
          <mxGeometry y="194" width="149" height="26" as="geometry" />
        </mxCell>
        <mxCell id="_pUWd24MQMTdGhzTTzj9-17" value="+cadastro()" style="text;align=left;verticalAlign=top;spacingLeft=4;spacingRight=4;overflow=hidden;rotatable=0;points=[[0,0.5],[1,0.5]];portConstraint=eastwest;shadow=0;glass=0;fontSize=14;" vertex="1" parent="zkfFHV4jXpPFQw0GAbJ--0">
          <mxGeometry y="220" width="149" height="26" as="geometry" />
        </mxCell>
        <mxCell id="_pUWd24MQMTdGhzTTzj9-19" value="USUARIO" style="swimlane;fontStyle=2;align=center;verticalAlign=top;childLayout=stackLayout;horizontal=1;startSize=30;horizontalStack=0;resizeParent=1;resizeLast=0;collapsible=1;marginBottom=0;rounded=0;shadow=0;strokeWidth=1;fontSize=14;" vertex="1" parent="WIyWlLk6GJQsqaUBKTNV-1">
          <mxGeometry x="250" y="29" width="160" height="180" as="geometry">
            <mxRectangle x="203" y="120" width="160" height="26" as="alternateBounds" />
          </mxGeometry>
        </mxCell>
        <mxCell id="_pUWd24MQMTdGhzTTzj9-20" value="-numUsuar: string" style="text;align=left;verticalAlign=top;spacingLeft=4;spacingRight=4;overflow=hidden;rotatable=0;points=[[0,0.5],[1,0.5]];portConstraint=eastwest;shadow=0;glass=0;fontSize=14;" vertex="1" parent="_pUWd24MQMTdGhzTTzj9-19">
          <mxGeometry y="30" width="160" height="26" as="geometry" />
        </mxCell>
        <mxCell id="_pUWd24MQMTdGhzTTzj9-22" value="-senha: string" style="text;align=left;verticalAlign=top;spacingLeft=4;spacingRight=4;overflow=hidden;rotatable=0;points=[[0,0.5],[1,0.5]];portConstraint=eastwest;shadow=0;glass=0;fontSize=14;" vertex="1" parent="_pUWd24MQMTdGhzTTzj9-19">
          <mxGeometry y="56" width="160" height="26" as="geometry" />
        </mxCell>
        <mxCell id="_pUWd24MQMTdGhzTTzj9-23" value="-estadLogin: string" style="text;align=left;verticalAlign=top;spacingLeft=4;spacingRight=4;overflow=hidden;rotatable=0;points=[[0,0.5],[1,0.5]];portConstraint=eastwest;shadow=0;glass=0;fontSize=14;" vertex="1" parent="_pUWd24MQMTdGhzTTzj9-19">
          <mxGeometry y="82" width="160" height="28" as="geometry" />
        </mxCell>
        <mxCell id="_pUWd24MQMTdGhzTTzj9-28" value="-dataCadastr: data" style="text;align=left;verticalAlign=top;spacingLeft=4;spacingRight=4;overflow=hidden;rotatable=0;points=[[0,0.5],[1,0.5]];portConstraint=eastwest;shadow=0;glass=0;fontSize=14;" vertex="1" parent="_pUWd24MQMTdGhzTTzj9-19">
          <mxGeometry y="110" width="160" height="28" as="geometry" />
        </mxCell>
        <mxCell id="_pUWd24MQMTdGhzTTzj9-24" value="" style="line;html=1;strokeWidth=1;align=left;verticalAlign=middle;spacingTop=-1;spacingLeft=3;spacingRight=3;rotatable=0;labelPosition=right;points=[];portConstraint=eastwest;fontSize=14;" vertex="1" parent="_pUWd24MQMTdGhzTTzj9-19">
          <mxGeometry y="138" width="160" height="8" as="geometry" />
        </mxCell>
        <mxCell id="_pUWd24MQMTdGhzTTzj9-25" value="+verifLogin(): bool" style="text;align=left;verticalAlign=top;spacingLeft=4;spacingRight=4;overflow=hidden;rotatable=0;points=[[0,0.5],[1,0.5]];portConstraint=eastwest;shadow=0;glass=0;fontSize=14;" vertex="1" parent="_pUWd24MQMTdGhzTTzj9-19">
          <mxGeometry y="146" width="160" height="26" as="geometry" />
        </mxCell>
        <mxCell id="_pUWd24MQMTdGhzTTzj9-30" value="ADM" style="swimlane;fontStyle=2;align=center;verticalAlign=top;childLayout=stackLayout;horizontal=1;startSize=30;horizontalStack=0;resizeParent=1;resizeLast=0;collapsible=1;marginBottom=0;rounded=0;shadow=0;strokeWidth=1;fontSize=14;" vertex="1" parent="WIyWlLk6GJQsqaUBKTNV-1">
          <mxGeometry x="457" y="29" width="201" height="125" as="geometry">
            <mxRectangle x="203" y="120" width="160" height="26" as="alternateBounds" />
          </mxGeometry>
        </mxCell>
        <mxCell id="_pUWd24MQMTdGhzTTzj9-31" value="-numAdm: string" style="text;align=left;verticalAlign=top;spacingLeft=4;spacingRight=4;overflow=hidden;rotatable=0;points=[[0,0.5],[1,0.5]];portConstraint=eastwest;shadow=0;glass=0;fontSize=14;" vertex="1" parent="_pUWd24MQMTdGhzTTzj9-30">
          <mxGeometry y="30" width="201" height="26" as="geometry" />
        </mxCell>
        <mxCell id="_pUWd24MQMTdGhzTTzj9-33" value="-email: string   " style="text;align=left;verticalAlign=top;spacingLeft=4;spacingRight=4;overflow=hidden;rotatable=0;points=[[0,0.5],[1,0.5]];portConstraint=eastwest;shadow=0;glass=0;fontSize=14;" vertex="1" parent="_pUWd24MQMTdGhzTTzj9-30">
          <mxGeometry y="56" width="201" height="28" as="geometry" />
        </mxCell>
        <mxCell id="_pUWd24MQMTdGhzTTzj9-35" value="" style="line;html=1;strokeWidth=1;align=left;verticalAlign=middle;spacingTop=-1;spacingLeft=3;spacingRight=3;rotatable=0;labelPosition=right;points=[];portConstraint=eastwest;fontSize=14;" vertex="1" parent="_pUWd24MQMTdGhzTTzj9-30">
          <mxGeometry y="84" width="201" height="8" as="geometry" />
        </mxCell>
        <mxCell id="_pUWd24MQMTdGhzTTzj9-36" value="+atualizCatalogo(): bool" style="text;align=left;verticalAlign=top;spacingLeft=4;spacingRight=4;overflow=hidden;rotatable=0;points=[[0,0.5],[1,0.5]];portConstraint=eastwest;shadow=0;glass=0;fontSize=14;" vertex="1" parent="_pUWd24MQMTdGhzTTzj9-30">
          <mxGeometry y="92" width="201" height="26" as="geometry" />
        </mxCell>
        <mxCell id="_pUWd24MQMTdGhzTTzj9-37" value="PEDIDO" style="swimlane;fontStyle=2;align=center;verticalAlign=top;childLayout=stackLayout;horizontal=1;startSize=30;horizontalStack=0;resizeParent=1;resizeLast=0;collapsible=1;marginBottom=0;rounded=0;shadow=0;strokeWidth=1;" vertex="1" parent="WIyWlLk6GJQsqaUBKTNV-1">
          <mxGeometry x="45" y="330" width="160" height="227" as="geometry">
            <mxRectangle x="203" y="120" width="160" height="26" as="alternateBounds" />
          </mxGeometry>
        </mxCell>
        <mxCell id="_pUWd24MQMTdGhzTTzj9-38" value="-numPedido: int" style="text;align=left;verticalAlign=top;spacingLeft=4;spacingRight=4;overflow=hidden;rotatable=0;points=[[0,0.5],[1,0.5]];portConstraint=eastwest;shadow=0;glass=0;fontSize=14;" vertex="1" parent="_pUWd24MQMTdGhzTTzj9-37">
          <mxGeometry y="30" width="160" height="26" as="geometry" />
        </mxCell>
        <mxCell id="_pUWd24MQMTdGhzTTzj9-39" value="-dataEnvio: string" style="text;align=left;verticalAlign=top;spacingLeft=4;spacingRight=4;overflow=hidden;rotatable=0;points=[[0,0.5],[1,0.5]];portConstraint=eastwest;shadow=0;glass=0;fontSize=14;" vertex="1" parent="_pUWd24MQMTdGhzTTzj9-37">
          <mxGeometry y="56" width="160" height="26" as="geometry" />
        </mxCell>
        <mxCell id="_pUWd24MQMTdGhzTTzj9-40" value="-nomeCliente: string" style="text;align=left;verticalAlign=top;spacingLeft=4;spacingRight=4;overflow=hidden;rotatable=0;points=[[0,0.5],[1,0.5]];portConstraint=eastwest;shadow=0;glass=0;fontSize=14;" vertex="1" parent="_pUWd24MQMTdGhzTTzj9-37">
          <mxGeometry y="82" width="160" height="26" as="geometry" />
        </mxCell>
        <mxCell id="_pUWd24MQMTdGhzTTzj9-41" value="-numCliente: int" style="text;align=left;verticalAlign=top;spacingLeft=4;spacingRight=4;overflow=hidden;rotatable=0;points=[[0,0.5],[1,0.5]];portConstraint=eastwest;shadow=0;glass=0;fontSize=14;" vertex="1" parent="_pUWd24MQMTdGhzTTzj9-37">
          <mxGeometry y="108" width="160" height="26" as="geometry" />
        </mxCell>
        <mxCell id="_pUWd24MQMTdGhzTTzj9-42" value="-estado: string" style="text;align=left;verticalAlign=top;spacingLeft=4;spacingRight=4;overflow=hidden;rotatable=0;points=[[0,0.5],[1,0.5]];portConstraint=eastwest;shadow=0;glass=0;fontSize=14;" vertex="1" parent="_pUWd24MQMTdGhzTTzj9-37">
          <mxGeometry y="134" width="160" height="26" as="geometry" />
        </mxCell>
        <mxCell id="_pUWd24MQMTdGhzTTzj9-54" value="-numEnvio: int" style="text;align=left;verticalAlign=top;spacingLeft=4;spacingRight=4;overflow=hidden;rotatable=0;points=[[0,0.5],[1,0.5]];portConstraint=eastwest;shadow=0;glass=0;fontSize=14;" vertex="1" parent="_pUWd24MQMTdGhzTTzj9-37">
          <mxGeometry y="160" width="160" height="26" as="geometry" />
        </mxCell>
        <mxCell id="_pUWd24MQMTdGhzTTzj9-43" value="" style="line;html=1;strokeWidth=1;align=left;verticalAlign=middle;spacingTop=-1;spacingLeft=3;spacingRight=3;rotatable=0;labelPosition=right;points=[];portConstraint=eastwest;fontSize=14;" vertex="1" parent="_pUWd24MQMTdGhzTTzj9-37">
          <mxGeometry y="186" width="160" height="8" as="geometry" />
        </mxCell>
        <mxCell id="_pUWd24MQMTdGhzTTzj9-44" value="+finalizarPedido()" style="text;align=left;verticalAlign=top;spacingLeft=4;spacingRight=4;overflow=hidden;rotatable=0;points=[[0,0.5],[1,0.5]];portConstraint=eastwest;shadow=0;glass=0;fontSize=14;" vertex="1" parent="_pUWd24MQMTdGhzTTzj9-37">
          <mxGeometry y="194" width="160" height="26" as="geometry" />
        </mxCell>
        <mxCell id="_pUWd24MQMTdGhzTTzj9-47" value="FORNECEDOR" style="swimlane;fontStyle=2;align=center;verticalAlign=top;childLayout=stackLayout;horizontal=1;startSize=30;horizontalStack=0;resizeParent=1;resizeLast=0;collapsible=1;marginBottom=0;rounded=0;shadow=0;strokeWidth=1;fontSize=14;" vertex="1" parent="WIyWlLk6GJQsqaUBKTNV-1">
          <mxGeometry x="724" y="39" width="180" height="179" as="geometry">
            <mxRectangle x="203" y="120" width="160" height="26" as="alternateBounds" />
          </mxGeometry>
        </mxCell>
        <mxCell id="_pUWd24MQMTdGhzTTzj9-48" value="-nome" style="text;align=left;verticalAlign=top;spacingLeft=4;spacingRight=4;overflow=hidden;rotatable=0;points=[[0,0.5],[1,0.5]];portConstraint=eastwest;shadow=0;glass=0;fontSize=14;" vertex="1" parent="_pUWd24MQMTdGhzTTzj9-47">
          <mxGeometry y="30" width="180" height="26" as="geometry" />
        </mxCell>
        <mxCell id="_pUWd24MQMTdGhzTTzj9-49" value="-cnpj cpf" style="text;align=left;verticalAlign=top;spacingLeft=4;spacingRight=4;overflow=hidden;rotatable=0;points=[[0,0.5],[1,0.5]];portConstraint=eastwest;shadow=0;glass=0;fontSize=14;" vertex="1" parent="_pUWd24MQMTdGhzTTzj9-47">
          <mxGeometry y="56" width="180" height="26" as="geometry" />
        </mxCell>
        <mxCell id="_pUWd24MQMTdGhzTTzj9-50" value="tipoProduto" style="text;align=left;verticalAlign=top;spacingLeft=4;spacingRight=4;overflow=hidden;rotatable=0;points=[[0,0.5],[1,0.5]];portConstraint=eastwest;shadow=0;glass=0;fontSize=14;" vertex="1" parent="_pUWd24MQMTdGhzTTzj9-47">
          <mxGeometry y="82" width="180" height="28" as="geometry" />
        </mxCell>
        <mxCell id="_pUWd24MQMTdGhzTTzj9-51" value="-telefone" style="text;align=left;verticalAlign=top;spacingLeft=4;spacingRight=4;overflow=hidden;rotatable=0;points=[[0,0.5],[1,0.5]];portConstraint=eastwest;shadow=0;glass=0;fontSize=14;" vertex="1" parent="_pUWd24MQMTdGhzTTzj9-47">
          <mxGeometry y="110" width="180" height="28" as="geometry" />
        </mxCell>
        <mxCell id="_pUWd24MQMTdGhzTTzj9-52" value="" style="line;html=1;strokeWidth=1;align=left;verticalAlign=middle;spacingTop=-1;spacingLeft=3;spacingRight=3;rotatable=0;labelPosition=right;points=[];portConstraint=eastwest;fontSize=14;" vertex="1" parent="_pUWd24MQMTdGhzTTzj9-47">
          <mxGeometry y="138" width="180" height="8" as="geometry" />
        </mxCell>
        <mxCell id="_pUWd24MQMTdGhzTTzj9-53" value="+verifLogin(): bool" style="text;align=left;verticalAlign=top;spacingLeft=4;spacingRight=4;overflow=hidden;rotatable=0;points=[[0,0.5],[1,0.5]];portConstraint=eastwest;shadow=0;glass=0;fontSize=14;" vertex="1" parent="_pUWd24MQMTdGhzTTzj9-47">
          <mxGeometry y="146" width="180" height="26" as="geometry" />
        </mxCell>
        <mxCell id="_pUWd24MQMTdGhzTTzj9-55" value="INFORMACAO DE ENVIO" style="swimlane;fontStyle=0;align=center;verticalAlign=top;childLayout=stackLayout;horizontal=1;startSize=30;horizontalStack=0;resizeParent=1;resizeLast=0;collapsible=1;marginBottom=0;rounded=0;shadow=0;strokeWidth=1;" vertex="1" parent="WIyWlLk6GJQsqaUBKTNV-1">
          <mxGeometry x="250" y="330" width="205" height="150" as="geometry">
            <mxRectangle x="203" y="120" width="160" height="26" as="alternateBounds" />
          </mxGeometry>
        </mxCell>
        <mxCell id="_pUWd24MQMTdGhzTTzj9-56" value="-numEnvio: int" style="text;align=left;verticalAlign=top;spacingLeft=4;spacingRight=4;overflow=hidden;rotatable=0;points=[[0,0.5],[1,0.5]];portConstraint=eastwest;shadow=0;glass=0;fontSize=14;" vertex="1" parent="_pUWd24MQMTdGhzTTzj9-55">
          <mxGeometry y="30" width="205" height="26" as="geometry" />
        </mxCell>
        <mxCell id="_pUWd24MQMTdGhzTTzj9-57" value="-custoEnvio: int" style="text;align=left;verticalAlign=top;spacingLeft=4;spacingRight=4;overflow=hidden;rotatable=0;points=[[0,0.5],[1,0.5]];portConstraint=eastwest;shadow=0;glass=0;fontSize=14;" vertex="1" parent="_pUWd24MQMTdGhzTTzj9-55">
          <mxGeometry y="56" width="205" height="26" as="geometry" />
        </mxCell>
        <mxCell id="_pUWd24MQMTdGhzTTzj9-58" value="-numRegiaoEnvio: int" style="text;align=left;verticalAlign=top;spacingLeft=4;spacingRight=4;overflow=hidden;rotatable=0;points=[[0,0.5],[1,0.5]];portConstraint=eastwest;shadow=0;glass=0;fontSize=14;" vertex="1" parent="_pUWd24MQMTdGhzTTzj9-55">
          <mxGeometry y="82" width="205" height="26" as="geometry" />
        </mxCell>
        <mxCell id="_pUWd24MQMTdGhzTTzj9-62" value="" style="line;html=1;strokeWidth=1;align=left;verticalAlign=middle;spacingTop=-1;spacingLeft=3;spacingRight=3;rotatable=0;labelPosition=right;points=[];portConstraint=eastwest;fontSize=14;" vertex="1" parent="_pUWd24MQMTdGhzTTzj9-55">
          <mxGeometry y="108" width="205" height="8" as="geometry" />
        </mxCell>
        <mxCell id="_pUWd24MQMTdGhzTTzj9-63" value="+atualizarInfoEnvio()" style="text;align=left;verticalAlign=top;spacingLeft=4;spacingRight=4;overflow=hidden;rotatable=0;points=[[0,0.5],[1,0.5]];portConstraint=eastwest;shadow=0;glass=0;fontSize=14;" vertex="1" parent="_pUWd24MQMTdGhzTTzj9-55">
          <mxGeometry y="116" width="205" height="26" as="geometry" />
        </mxCell>
        <mxCell id="_pUWd24MQMTdGhzTTzj9-64" value="DETALHES" style="swimlane;fontStyle=2;align=center;verticalAlign=top;childLayout=stackLayout;horizontal=1;startSize=30;horizontalStack=0;resizeParent=1;resizeLast=0;collapsible=1;marginBottom=0;rounded=0;shadow=0;strokeWidth=1;" vertex="1" parent="WIyWlLk6GJQsqaUBKTNV-1">
          <mxGeometry x="502" y="329" width="160" height="227" as="geometry">
            <mxRectangle x="203" y="120" width="160" height="26" as="alternateBounds" />
          </mxGeometry>
        </mxCell>
        <mxCell id="_pUWd24MQMTdGhzTTzj9-65" value="-numPedido: int" style="text;align=left;verticalAlign=top;spacingLeft=4;spacingRight=4;overflow=hidden;rotatable=0;points=[[0,0.5],[1,0.5]];portConstraint=eastwest;shadow=0;glass=0;fontSize=14;" vertex="1" parent="_pUWd24MQMTdGhzTTzj9-64">
          <mxGeometry y="30" width="160" height="26" as="geometry" />
        </mxCell>
        <mxCell id="_pUWd24MQMTdGhzTTzj9-66" value="-numProduto: int" style="text;align=left;verticalAlign=top;spacingLeft=4;spacingRight=4;overflow=hidden;rotatable=0;points=[[0,0.5],[1,0.5]];portConstraint=eastwest;shadow=0;glass=0;fontSize=14;" vertex="1" parent="_pUWd24MQMTdGhzTTzj9-64">
          <mxGeometry y="56" width="160" height="26" as="geometry" />
        </mxCell>
        <mxCell id="_pUWd24MQMTdGhzTTzj9-67" value="-nomeProduto: string" style="text;align=left;verticalAlign=top;spacingLeft=4;spacingRight=4;overflow=hidden;rotatable=0;points=[[0,0.5],[1,0.5]];portConstraint=eastwest;shadow=0;glass=0;fontSize=14;" vertex="1" parent="_pUWd24MQMTdGhzTTzj9-64">
          <mxGeometry y="82" width="160" height="26" as="geometry" />
        </mxCell>
        <mxCell id="_pUWd24MQMTdGhzTTzj9-68" value="-quantidade: int" style="text;align=left;verticalAlign=top;spacingLeft=4;spacingRight=4;overflow=hidden;rotatable=0;points=[[0,0.5],[1,0.5]];portConstraint=eastwest;shadow=0;glass=0;fontSize=14;" vertex="1" parent="_pUWd24MQMTdGhzTTzj9-64">
          <mxGeometry y="108" width="160" height="26" as="geometry" />
        </mxCell>
        <mxCell id="_pUWd24MQMTdGhzTTzj9-69" value="-custoUnidade: float" style="text;align=left;verticalAlign=top;spacingLeft=4;spacingRight=4;overflow=hidden;rotatable=0;points=[[0,0.5],[1,0.5]];portConstraint=eastwest;shadow=0;glass=0;fontSize=14;" vertex="1" parent="_pUWd24MQMTdGhzTTzj9-64">
          <mxGeometry y="134" width="160" height="26" as="geometry" />
        </mxCell>
        <mxCell id="_pUWd24MQMTdGhzTTzj9-70" value="-subtotal: float" style="text;align=left;verticalAlign=top;spacingLeft=4;spacingRight=4;overflow=hidden;rotatable=0;points=[[0,0.5],[1,0.5]];portConstraint=eastwest;shadow=0;glass=0;fontSize=14;" vertex="1" parent="_pUWd24MQMTdGhzTTzj9-64">
          <mxGeometry y="160" width="160" height="26" as="geometry" />
        </mxCell>
        <mxCell id="_pUWd24MQMTdGhzTTzj9-71" value="" style="line;html=1;strokeWidth=1;align=left;verticalAlign=middle;spacingTop=-1;spacingLeft=3;spacingRight=3;rotatable=0;labelPosition=right;points=[];portConstraint=eastwest;fontSize=14;" vertex="1" parent="_pUWd24MQMTdGhzTTzj9-64">
          <mxGeometry y="186" width="160" height="8" as="geometry" />
        </mxCell>
        <mxCell id="_pUWd24MQMTdGhzTTzj9-72" value="+calcularPreco" style="text;align=left;verticalAlign=top;spacingLeft=4;spacingRight=4;overflow=hidden;rotatable=0;points=[[0,0.5],[1,0.5]];portConstraint=eastwest;shadow=0;glass=0;fontSize=14;" vertex="1" parent="_pUWd24MQMTdGhzTTzj9-64">
          <mxGeometry y="194" width="160" height="26" as="geometry" />
        </mxCell>
        <mxCell id="_pUWd24MQMTdGhzTTzj9-73" value="PRODUTO" style="swimlane;fontStyle=2;align=center;verticalAlign=top;childLayout=stackLayout;horizontal=1;startSize=30;horizontalStack=0;resizeParent=1;resizeLast=0;collapsible=1;marginBottom=0;rounded=0;shadow=0;strokeWidth=1;fontSize=14;" vertex="1" parent="WIyWlLk6GJQsqaUBKTNV-1">
          <mxGeometry x="729" y="248" width="160" height="180" as="geometry">
            <mxRectangle x="203" y="120" width="160" height="26" as="alternateBounds" />
          </mxGeometry>
        </mxCell>
        <mxCell id="_pUWd24MQMTdGhzTTzj9-74" value="-numUsuar: string" style="text;align=left;verticalAlign=top;spacingLeft=4;spacingRight=4;overflow=hidden;rotatable=0;points=[[0,0.5],[1,0.5]];portConstraint=eastwest;shadow=0;glass=0;fontSize=14;" vertex="1" parent="_pUWd24MQMTdGhzTTzj9-73">
          <mxGeometry y="30" width="160" height="26" as="geometry" />
        </mxCell>
        <mxCell id="_pUWd24MQMTdGhzTTzj9-75" value="-senha: string" style="text;align=left;verticalAlign=top;spacingLeft=4;spacingRight=4;overflow=hidden;rotatable=0;points=[[0,0.5],[1,0.5]];portConstraint=eastwest;shadow=0;glass=0;fontSize=14;" vertex="1" parent="_pUWd24MQMTdGhzTTzj9-73">
          <mxGeometry y="56" width="160" height="26" as="geometry" />
        </mxCell>
        <mxCell id="_pUWd24MQMTdGhzTTzj9-76" value="-estadLogin: string" style="text;align=left;verticalAlign=top;spacingLeft=4;spacingRight=4;overflow=hidden;rotatable=0;points=[[0,0.5],[1,0.5]];portConstraint=eastwest;shadow=0;glass=0;fontSize=14;" vertex="1" parent="_pUWd24MQMTdGhzTTzj9-73">
          <mxGeometry y="82" width="160" height="28" as="geometry" />
        </mxCell>
        <mxCell id="_pUWd24MQMTdGhzTTzj9-77" value="-dataCadastr: data" style="text;align=left;verticalAlign=top;spacingLeft=4;spacingRight=4;overflow=hidden;rotatable=0;points=[[0,0.5],[1,0.5]];portConstraint=eastwest;shadow=0;glass=0;fontSize=14;" vertex="1" parent="_pUWd24MQMTdGhzTTzj9-73">
          <mxGeometry y="110" width="160" height="28" as="geometry" />
        </mxCell>
        <mxCell id="_pUWd24MQMTdGhzTTzj9-78" value="" style="line;html=1;strokeWidth=1;align=left;verticalAlign=middle;spacingTop=-1;spacingLeft=3;spacingRight=3;rotatable=0;labelPosition=right;points=[];portConstraint=eastwest;fontSize=14;" vertex="1" parent="_pUWd24MQMTdGhzTTzj9-73">
          <mxGeometry y="138" width="160" height="8" as="geometry" />
        </mxCell>
        <mxCell id="_pUWd24MQMTdGhzTTzj9-79" value="+verifLogin(): bool" style="text;align=left;verticalAlign=top;spacingLeft=4;spacingRight=4;overflow=hidden;rotatable=0;points=[[0,0.5],[1,0.5]];portConstraint=eastwest;shadow=0;glass=0;fontSize=14;" vertex="1" parent="_pUWd24MQMTdGhzTTzj9-73">
          <mxGeometry y="146" width="160" height="26" as="geometry" />
        </mxCell>
      </root>
    </mxGraphModel>
  </diagram>
</mxfile>
